<svg width="70" height="74" viewBox="0 0 70 74" fill="none" xmlns="http://www.w3.org/2000/svg">
<g clip-path="url(#clip0_9_181)">
<path d="M27.4553 34.3031V73.2746C27.4553 73.6886 27.8227 73.9474 28.1442 73.7404L41.4187 65.6148C41.5565 65.5113 41.6484 65.3561 41.6484 65.149V43.0497C41.6484 42.8426 41.5565 42.6874 41.4187 42.5839L28.1902 33.8373C27.8686 33.6302 27.4553 33.889 27.4553 34.3031ZM25.572 73.4298V18.052C25.572 17.6897 25.2505 17.4309 24.929 17.5344L8.80664 24.2626C8.62291 24.3661 8.48511 24.5214 8.48511 24.7801V66.9087C8.48511 67.1157 8.62291 67.3227 8.80664 67.4263L24.929 73.9474C25.2505 74.0509 25.572 73.7921 25.572 73.4298Z" fill="#F8F8F8"/>
</g>
<g clip-path="url(#clip1_9_181)">
<path d="M41.7432 39.6969V0.72543C41.7432 0.31139 41.3758 0.0526161 41.0542 0.259636L27.7797 8.38517C27.6419 8.48868 27.5501 8.64394 27.5501 8.85096V30.9503C27.5501 31.1574 27.6419 31.3126 27.7797 31.4161L41.0083 40.1627C41.3298 40.3698 41.7432 40.111 41.7432 39.6969ZM43.6265 0.570164V55.948C43.6265 56.3103 43.948 56.5691 44.2695 56.4656L60.3919 49.7374C60.5756 49.6339 60.7134 49.4786 60.7134 49.2199V7.09129C60.7134 6.88427 60.5756 6.67726 60.3919 6.57375L44.2695 0.0526161C43.948 -0.0508919 43.6265 0.207878 43.6265 0.570164Z" fill="#E2F663"/>
</g>
<defs>
<clipPath id="clip0_9_181">
<rect width="50.1336" height="56.4886" fill="white" transform="translate(0 17.5114)"/>
</clipPath>
<clipPath id="clip1_9_181">
<rect width="50.1336" height="56.4886" fill="white" transform="matrix(-1 0 0 -1 69.1985 56.4886)"/>
</clipPath>
</defs>
</svg>
